<svg viewBox="0 0 24 24" xmlns="http://www.w3.org/2000/svg"> 
<path d="M9.439 5.48489L9.23134 5.87585H6.4625C5.95199 5.87585 5.53955 6.26681 5.53955 6.75073C5.53955 7.23464 5.95199 7.6256 6.4625 7.6256H17.5379C18.0484 7.6256 18.4608 7.23464 18.4608 6.75073C18.4608 6.26681 18.0484 5.87585 17.5379 5.87585H14.769L14.5613 5.48489C14.4056 5.18689 14.0855 5.00098 13.7365 5.00098H10.2639C9.91489 5.00098 9.59475 5.18689 9.439 5.48489ZM17.5379 8.50048H6.4625L7.07395 17.7687C7.1201 18.4604 7.72578 18.999 8.45548 18.999H15.5449C16.2746 18.999 16.8803 18.4604 16.9264 17.7687L17.5379 8.50048Z" /> 
</svg>
